{"title":"Locked.Down.2010.DvDRip.Ac3.Feel-Free","uid":5939771,"size":988845638,"categoryP":"video","categoryS":"movies","magnet":"?xt=urn:btih:904cb8f18205f22fc75c11aab0009c9044f8c755&amp;dn=Locked.Down.2010.DvDRip.Ac3.Feel-Free&amp;tr=udp%3A%2F%2Ftracker.openbittorrent.com%3A80&amp;tr=udp%3A%2F%2Fopen.demonii.com%3A1337&amp;tr=udp%3A%2F%2Ftracker.coppersurfer.tk%3A6969&amp;tr=udp%3A%2F%2Fexodus.desync.com%3A6969","seeders":0,"leechers":0,"uploader":"deffjam555","files":8,"time":1289110112,"description":"Genre:Action\nLanguage:English\nIMDb:http://www.imdb.com/title/tt1597033/\nSource:DVD\n\n\nGeneral\nComplete name :Locked.Down.2010.DvDRip.Ac3.Feel-Free\nFormat : AVI\nFormat/Info : Audio Video Interleave\nFile size : 941 MiB\nDuration : 1h 38mn\nOverall bit rate : 1 332 Kbps\nVideo #0\nCodec ID : XVID\nCodec ID/Hint : XviD\nDuration : 1h 38mn\nBit rate : 874 Kbps\nWidth : 720 pixels\nHeight : 384 pixels\nDisplay aspect ratio : 1.875\nFrame rate : 23.976 fps\nResolution : 24 bits\nColorimetry : 4:2:0\nScan type : Progressive\nBits/(Pixel*Frame) : 0.132\nStream size : 618 MiB (66%)\nWriting library : XviD 1.2.1 (UTC 2008-12-04)\nAudio #1\nID : 1\nFormat : AC-3\nFormat/Info : Audio Coding 3\nCodec ID : 2000\nDuration : 1h 38mn\nBit rate mode : Constant\nBit rate : 448 Kbps\nChannel(s) : 6 channels\nChannel positions : Front: L C R, Surround: L R, LFE\nSampling rate : 48.0 KHz\nStream size : 317 MiB (34%)\nAlignment : Split accross interleaves\nInterleave, duration : 42 ms (1.00 video frame)\nInterleave, preload duration : 500 ms\n\nPlot:\nDanny, a respected cop, is setup after an investigation goes wrong. While laying low in his new jail cell, Danny is forced to get involved in the inmates underground cage fighting circuit. With the help of Irving, a former mixed martial arts champion, Danny devises a scheme to bring justice and innocence to his family's name, if he can get out of the cage alive.\n","torrent":{"xt":"urn:btih:904cb8f18205f22fc75c11aab0009c9044f8c755","amp;dn":"Locked.Down.2010.DvDRip.Ac3.Feel-Free","amp;tr":["udp%3A%2F%2Ftracker.openbittorrent.com%3A80","udp%3A%2F%2Fopen.demonii.com%3A1337","udp%3A%2F%2Ftracker.coppersurfer.tk%3A6969","udp%3A%2F%2Fexodus.desync.com%3A6969"],"infoHash":"904cb8f18205f22fc75c11aab0009c9044f8c755","infoHashBuffer":{"type":"Buffer","data":[144,76,184,241,130,5,242,47,199,92,17,170,176,0,156,144,68,248,199,85]},"announce":[],"urlList":[]}}